<svg xmlns="http://www.w3.org/2000/svg" viewBox="0 0 200 200"><defs><style>.cls-1{fill:none;}.cls-2{fill:#fff;opacity:0.5;}</style></defs><title>Asset 2</title><g id="Layer_2" data-name="Layer 2"><g id="Layer_1-2" data-name="Layer 1"><rect class="cls-1" width="200" height="200"/><rect class="cls-2" x="21.1" y="16.6" width="2.27" height="2.27" transform="translate(-6.03 20.91) rotate(-45)"/><rect class="cls-2" x="45.71" y="48.18" width="3.07" height="3.07" transform="translate(-21.32 47.97) rotate(-45)"/><rect class="cls-2" x="141.08" y="18.65" width="1.38" height="1.38" transform="translate(27.85 105.91) rotate(-45)"/><rect class="cls-2" x="122.49" y="102.21" width="1.28" height="1.28" transform="translate(-36.66 117.19) rotate(-45)"/><rect class="cls-2" x="29.47" y="135.24" width="1.86" height="1.86" transform="translate(-87.38 61.38) rotate(-45)"/><rect class="cls-2" x="141.09" y="167.33" width="2.09" height="2.09" transform="translate(-77.43 149.82) rotate(-45)"/><rect class="cls-2" x="149.47" y="68.5" width="2.33" height="2.33" transform="translate(-5.14 126.91) rotate(-45)"/><circle class="cls-2" cx="48.41" cy="171.69" r="1.16"/><circle class="cls-2" cx="70.35" cy="94.44" r="0.74"/><circle class="cls-2" cx="20.64" cy="81.83" r="1.59"/><circle class="cls-2" cx="156.71" cy="119.39" r="1.4"/><circle class="cls-2" cx="91.57" cy="20.28" r="0.94"/><circle class="cls-2" cx="101.1" cy="146.02" r="1.1"/><circle class="cls-2" cx="192.66" cy="194.42" r="1.07"/></g></g></svg>