<?xml version="1.0" encoding="utf-8"?>
<!-- Generator: Adobe Illustrator 21.0.2, SVG Export Plug-In . SVG Version: 6.00 Build 0)  -->
<svg version="1.1" id="Layer_1" xmlns="http://www.w3.org/2000/svg" xmlns:xlink="http://www.w3.org/1999/xlink" x="0px" y="0px"
	 viewBox="0 0 1280 1280" style="enable-background:new 0 0 1280 1280;" xml:space="preserve">
<g>
	<g>
		<path d="M868.2,309.4c-22,119.4-86.1,163-126.2,178.8c-15.5,6.1-31.6-7.7-28-24c23.2-103.2,83.8-153.9,123.2-176.7
			C852.7,278.5,871.5,291.8,868.2,309.4z"/>
		<g>
			<path d="M866.8,309c-12.5,66.9-43.8,134.1-105.5,168.4c-10.6,5.9-25.5,15.3-37.2,7.7c-4.3-2.7-7.4-7-8.6-12
				c-1.4-6.2,0.9-12.7,2.4-18.7c2.9-11.1,6.3-22.1,10.3-32.8c13.4-35.7,33.9-68.7,61-95.5c11.1-11,23.3-21,36.3-29.6
				c6.3-4.2,13.6-10.1,21.4-10.4C859.4,285.6,868.6,297,866.8,309c-0.3,1.9,2.6,2.7,2.9,0.8c2.7-17.8-15.2-32.7-32-24.3
				c-12.2,6.1-23.7,15-34.1,23.6c-29.5,24.4-53,55.7-69.2,90.3c-5.1,10.8-9.5,22-13.2,33.4c-1.9,5.8-3.6,11.6-5.2,17.5
				c-1.5,5.8-3.7,11.9-3.9,18c-0.2,9.1,5.5,17.6,13.9,21.1c7.3,3,14.1,1.3,21.1-1.7c24.8-10.6,46.9-27.2,64.6-47.4
				c32-36.5,49.3-83.3,58.1-130.5C870,307.9,867.2,307.1,866.8,309z"/>
		</g>
	</g>
</g>
<g>
	<g>
		<path d="M592.5,184.3c94.1,87.7,88.9,169.1,77.7,209.4c-3.7,13.2-20.5,17.7-30,8.1c-78.5-79.3-82.7-162.2-77.8-206.1
			C564.1,181.1,581.9,174.4,592.5,184.3z"/>
		<g>
			<path d="M591.5,185.3c51.4,48.1,91.8,114.2,81.7,187.1c-1.5,10.8-2.7,27.5-14.5,31.9c-10.8,4.1-17.9-4-24.6-11.2
				c-8.5-9.1-16.4-18.7-23.7-28.8c-22.4-31.1-38.2-66.9-44.6-104.8c-2.6-15.8-3.7-31.9-3-47.9c0.3-6.5-0.1-14.9,2.6-20.9
				C570.1,180.7,583.3,178.2,591.5,185.3c1.5,1.3,3.6-0.9,2.1-2.1c-12.4-10.8-30.8-2.7-32.7,13.2c-1.6,13.7-1.7,27.7-0.7,41.5
				c2.8,39.2,15.6,77.1,36.1,110.6c6.2,10.2,13.2,20,20.7,29.3c4,5,8.1,9.8,12.4,14.6c4,4.4,7.9,9.6,12.9,12.9
				c6.1,4,14.2,4,20.5,0.3c6.4-3.8,8.6-10,10.3-16.8c6.4-26.5,6-54.4-0.3-80.8c-11.7-49.1-42.9-90.8-79.2-124.8
				C592.2,181.9,590,184,591.5,185.3z"/>
		</g>
	</g>
</g>
<g>
	<g>
		<path d="M883.6,545c-53,112.8-128.2,137.6-171,142c-15.8,1.6-27-15.1-19.7-29.2c50-96.1,123.5-129.3,167.6-140.7
			C876.9,512.9,890.8,529.7,883.6,545z"/>
		<g>
			<path d="M882.3,544.3c-29.5,62.5-77.9,120.6-147.8,137.5c-11.1,2.7-27.5,7.7-36.7-1.3c-3.6-3.5-5.7-8.4-5.7-13.4
				c0-6.3,3.7-11.7,6.7-17c5.7-10.2,11.8-20.1,18.6-29.6c22.2-31.3,50.6-58.3,83.9-77.4c13.7-7.9,28.2-14.5,43.2-19.6
				c6.5-2.2,14.4-5.6,21.3-5.5C879.2,518.2,887.5,532.3,882.3,544.3c-0.8,1.8,1.8,3.3,2.6,1.5c7.6-17.7-8.2-34.4-26.3-29.7
				c-13.4,3.5-26.4,8.3-38.9,14.1c-35.3,16.3-66.3,40.9-91.1,70.8c-7.4,8.9-14.3,18.3-20.6,28.1c-3.7,5.6-7.2,11.4-10.5,17.3
				c-2.9,5.1-6.5,10.3-7.8,16.1c-1.8,8.1,1.3,16.7,7.8,21.8c6.3,4.9,13.3,4.7,20.7,3.7c27-3.6,52.8-13.9,75.5-29
				c41.1-27.4,70.4-69,91.2-113.1C885.7,544,883.1,542.5,882.3,544.3z"/>
		</g>
	</g>
</g>
<g>
	<g>
		<path d="M473.5,378.9c117.9,34.8,154.2,104.3,165.4,145.9c4.2,15.8-10.8,30-26.3,24.7C511.1,515,467.2,448.4,449,406.6
			C442,390.8,456.9,374,473.5,378.9z"/>
		<g>
			<path d="M473.1,380.4c65.6,19.5,129.7,58.1,157.1,123.7c4.4,10.5,11.8,25.8,4.8,36.4c-3,4.6-7.9,7.7-13.3,8.5
				c-6.1,0.8-12.1-2-17.7-4.1c-11.4-4.2-22.5-9-33.3-14.5c-33.4-17-63.4-40.4-87-69.5c-9.9-12.3-18.7-25.6-26.1-39.6
				c-3.3-6.3-8.2-13.9-8.8-21.1C447.6,386.6,460.6,377.1,473.1,380.4c1.9,0.5,2.7-2.4,0.8-2.9c-8.8-2.3-17.9,0.4-23.6,7.7
				c-5.6,7.2-5.5,15.9-1.9,23.9c5.7,12.9,12.7,25.2,20.6,36.9c21.4,31.6,50.1,57.9,82.9,77.4c10.2,6.1,20.7,11.5,31.6,16.3
				c5.7,2.5,11.4,4.9,17.3,7.1c5.5,2.1,11.3,4.9,17.2,5.2c8.7,0.5,17-4.5,20.9-12.3c3.6-7.2,1.9-14.4-0.3-21.6
				c-8-25.8-22.2-49.3-40.5-69.1c-33.1-35.7-78-57.8-124.1-71.6C472,376.9,471.3,379.8,473.1,380.4z"/>
		</g>
	</g>
</g>
<g>
	<g>
		<path d="M462.1,568c109.7,24.2,152.2,83.5,168.5,123.5c7.3,17.9-8.9,36.3-27.6,31.4c-95-25-143.2-81.2-166.1-120.4
			C426.6,584.9,442.3,563.6,462.1,568z"/>
		<g>
			<path d="M461.7,569.4c64.5,14.4,128.2,47,160.4,107.3c6.6,12.5,14.4,28,1.7,39.6c-9.1,8.4-19.8,5.3-30.5,2.2
				c-11-3.3-21.8-7.1-32.4-11.6c-33.6-14.2-64.4-34.7-89.5-61.2c-10.5-11.1-20-23.2-28.3-36.1c-4.9-7.6-9.9-15.5-7.1-24.9
				C439.3,573.7,450.4,567.3,461.7,569.4c1.9,0.4,2.7-2.5,0.8-2.9c-16.6-3.2-32.7,10.4-30.1,27.8c1.1,7.3,6,13.8,10,19.9
				c3.9,5.9,8,11.6,12.4,17.1c23.1,29.2,52.8,52.8,85.9,69.7c10.1,5.1,20.4,9.6,31,13.6c5.7,2.1,11.5,4.1,17.4,5.9
				c5.6,1.7,11.4,3.9,17.3,4.5c19,2.1,32.2-17.5,25.3-34.6c-9.8-24.4-25.9-46.3-45.3-64c-34.5-31.6-78.9-49.8-124-59.9
				C460.6,566.1,459.8,569,461.7,569.4z"/>
		</g>
	</g>
</g>
<g>
	<g>
		<path d="M911.8,764.6c-91.4,84.4-170.4,79.2-211.7,67.1c-15.3-4.5-19.4-24.2-7.3-34.5c82.4-70.1,162.9-73.2,208-67.2
			C917.7,732.2,924.3,753.1,911.8,764.6z"/>
		<g>
			<path d="M910.8,763.6C859.2,811,791,846.9,719,834.6c-12-2.1-28.5-4-31.4-18.3c-2.2-11,5.4-17.4,13.1-23.7
				c9.7-7.9,19.9-15.2,30.5-21.9c33.5-21.1,71.3-35.3,110.7-39.7c15.7-1.8,31.6-2.1,47.4-0.8c8,0.7,17,0.7,22.7,7.2
				C918.9,745.2,918,756.5,910.8,763.6c-1.4,1.4,0.7,3.5,2.1,2.1c10.9-10.7,8.2-29.9-6.5-35.8c-6.3-2.5-14.1-2.5-20.8-2.9
				c-7.6-0.5-15.2-0.6-22.8-0.4c-39.7,1.1-78.8,12-113.9,30.5c-11.3,6-22.2,12.7-32.7,20.1c-5.2,3.7-10.4,7.5-15.4,11.5
				c-4.3,3.4-9.3,6.8-12.6,11.3c-4.4,6.1-5.1,14.3-2.1,21.2c3,6.8,8.7,10.6,15.6,12.5c26.6,7.4,54.7,8,81.8,2.9
				c49.3-9.4,92.9-37.4,129.4-70.9C914.3,764.4,912.2,762.3,910.8,763.6z"/>
		</g>
	</g>
</g>
<g>
	<g>
		<path d="M889.3,952.2c-103.1,65.5-179,47.7-217.8,29c-14.9-7.2-15.7-28.2-1.4-36.5c91.9-53.4,170.6-43.2,214.1-29.7
			C901.1,920.2,904.2,942.7,889.3,952.2z"/>
		<g>
			<path d="M888.6,950.9c-58.8,37.2-131.4,60.1-199.6,35.9c-11.7-4.2-27.4-9.1-27.6-24c-0.2-11.7,9-16.7,18.1-21.6
				c10.7-5.8,21.8-11.1,33.1-15.6c36.5-14.6,75.9-21.8,115.2-19.3c16,1,32,3.6,47.5,7.8c7.8,2.1,15.8,4.1,19.8,11.8
				C899.8,934.7,896.8,945.3,888.6,950.9c-1.6,1.1-0.1,3.7,1.5,2.6c12.5-8.4,13.9-27.1,1.5-36.4c-5.4-4-12.7-5.3-19.1-6.9
				c-7.3-1.8-14.8-3.3-22.2-4.5c-39.3-6.1-79.6-2.4-117.5,9.5c-11.8,3.7-23.3,8.2-34.5,13.3c-5.7,2.6-11.3,5.4-16.8,8.3
				c-5.4,2.8-11.7,5.6-16.2,9.8c-11.7,11.1-7.2,29.7,6.6,36.4c24.3,11.8,51.7,17.2,78.7,17c50.1-0.4,97.8-20,139.7-46.4
				C891.7,952.4,890.2,949.8,888.6,950.9z"/>
		</g>
	</g>
</g>
<g>
	<g>
		<path d="M435.2,746.7c120.8,21.9,164.4,86.9,180,127c5.9,15.3-7.5,31-23.5,27.5c-104.2-23.3-155.1-84.5-177.8-124
			C405.2,762.1,418,743.6,435.2,746.7z"/>
		<g>
			<path d="M434.8,748.2c67.1,12.3,134.8,43.6,169.3,105.4c5.8,10.4,15.4,25.5,8.5,37.1c-2.6,4.4-6.9,7.7-11.9,9
				c-6.2,1.5-12.7-0.8-18.7-2.3c-11.1-2.8-22.1-6.2-32.8-10.2c-35.7-13.3-68.7-33.7-95.6-60.7c-11.3-11.3-21.4-23.7-30.3-37
				c-4-6.1-9.9-13.4-10.6-20.8C411.5,756.2,422.7,746.4,434.8,748.2c1.9,0.3,2.7-2.6,0.8-2.9c-18.9-2.8-32,16.8-22.7,33.3
				c6.7,11.9,14.8,23.1,23.5,33.6c24.5,29.4,55.8,52.8,90.5,68.9c10.8,5,22,9.4,33.4,13.1c5.8,1.9,11.6,3.6,17.5,5.2
				c5.8,1.5,12,3.7,18,3.8c8.9,0.2,17.2-5.4,20.6-13.6c3.2-7.6,1.1-14.6-2-21.7c-10.7-25-27.4-47.1-47.9-64.9
				c-36.7-31.9-83.6-49.1-130.9-57.8C433.7,744.9,432.9,747.8,434.8,748.2z"/>
		</g>
	</g>
</g>
<g>
	<g>
		<path d="M410.9,937.6c123.4-4.3,179.9,50.5,203.5,86.5c8.9,13.5-0.8,31.6-17,31.5c-107.6-0.6-170.5-50.3-200.9-84.2
			C385.1,958.6,393.8,938.2,410.9,937.6z"/>
		<g>
			<path d="M410.9,939.1c69.1-2.2,142.7,14.4,189.5,68.8c7.7,9,19.6,21.3,14.7,34c-4.5,11.8-15.7,12.3-26.6,12
				c-12.2-0.4-24.5-1.4-36.6-3.2c-38.3-5.7-75.4-19-107.7-40.3c-13.3-8.8-25.7-18.8-37-30c-5.3-5.3-12.5-11.2-14-18.9
				C391,950.1,399.6,939.8,410.9,939.1c1.9-0.1,1.9-3.1,0-3c-17.2,1.1-27.5,20.9-16.5,35c8.5,10.9,19.8,20.4,30.5,29
				c30.6,24.3,66.7,40.9,104.7,49.5c12,2.7,24.2,4.6,36.5,5.9c6.3,0.6,12.5,1.1,18.8,1.3c5.8,0.2,12.2,1.1,17.9-0.3
				c8.1-2,14.4-8.8,16.1-17c1.5-7.6-1.5-13.8-5.7-19.9c-15.5-22.3-36.3-40.5-59.9-53.8c-43.1-24.2-93.5-31.2-142.3-29.7
				C409,936.2,409,939.2,410.9,939.1z"/>
		</g>
	</g>
</g>
</svg>
