<svg xmlns="http://www.w3.org/2000/svg" viewBox="0 0 529.71 879"><defs><style>.cls-1{fill:#fcfcfc;}</style></defs><title>Asset 1</title><g id="Layer_2" data-name="Layer 2"><g id="Layer_1-2" data-name="Layer 1"><path class="cls-1" d="M478.35,131.13c-22,119.4-86.1,163-126.2,178.8-15.5,6.1-31.6-7.7-28-24,23.2-103.2,83.8-153.9,123.2-176.7A20.85,20.85,0,0,1,478.35,131.13Z"/><path class="cls-1" d="M476.95,130.73c-12.5,66.9-43.8,134.1-105.5,168.4-10.6,5.9-25.5,15.3-37.2,7.7a19.55,19.55,0,0,1-8.6-12c-1.4-6.2.9-12.7,2.4-18.7a337.15,337.15,0,0,1,10.3-32.8c13.4-35.7,33.9-68.7,61-95.5a239.5,239.5,0,0,1,36.3-29.6c6.3-4.2,13.6-10.1,21.4-10.4,12.5-.5,21.7,10.9,19.9,22.9-.3,1.9,2.6,2.7,2.9.8,2.7-17.8-15.2-32.7-32-24.3-12.2,6.1-23.7,15-34.1,23.6-29.5,24.4-53,55.7-69.2,90.3a282.67,282.67,0,0,0-13.2,33.4c-1.9,5.8-3.6,11.6-5.2,17.5s-3.7,11.9-3.9,18a22.66,22.66,0,0,0,13.9,21.1c7.3,3,14.1,1.3,21.1-1.7a181.46,181.46,0,0,0,64.6-47.4c32-36.5,49.3-83.3,58.1-130.5C480.15,129.63,477.35,128.83,476.95,130.73Z"/><path class="cls-1" d="M202.65,6c94.1,87.7,88.9,169.1,77.7,209.4-3.7,13.2-20.5,17.7-30,8.1-78.5-79.3-82.7-162.2-77.8-206.1C174.25,2.83,192-3.87,202.65,6Z"/><path class="cls-1" d="M201.65,7c51.4,48.1,91.8,114.2,81.7,187.1-1.5,10.8-2.7,27.5-14.5,31.9-10.8,4.1-17.9-4-24.6-11.2a297.16,297.16,0,0,1-23.7-28.8c-22.4-31.1-38.2-66.9-44.6-104.8a232.86,232.86,0,0,1-3-47.9c.3-6.5-.1-14.9,2.6-20.9,4.7-10,17.9-12.5,26.1-5.4,1.5,1.3,3.6-.9,2.1-2.1-12.4-10.8-30.8-2.7-32.7,13.2a221.24,221.24,0,0,0-.7,41.5c2.8,39.2,15.6,77.1,36.1,110.6a271.63,271.63,0,0,0,20.7,29.3c4,5,8.1,9.8,12.4,14.6,4,4.4,7.9,9.6,12.9,12.9a19.64,19.64,0,0,0,20.5.3c6.4-3.8,8.6-10,10.3-16.8a173.73,173.73,0,0,0-.3-80.8c-11.7-49.1-42.9-90.8-79.2-124.8C202.35,3.63,200.15,5.73,201.65,7Z"/><path class="cls-1" d="M493.75,366.73c-53,112.8-128.2,137.6-171,142-15.8,1.6-27-15.1-19.7-29.2,50-96.1,123.5-129.3,167.6-140.7C487,334.63,500.95,351.43,493.75,366.73Z"/><path class="cls-1" d="M492.45,366c-29.5,62.5-77.9,120.6-147.8,137.5-11.1,2.7-27.5,7.7-36.7-1.3a18.86,18.86,0,0,1-5.7-13.4c0-6.3,3.7-11.7,6.7-17a312.69,312.69,0,0,1,18.6-29.6c22.2-31.3,50.6-58.3,83.9-77.4a243.58,243.58,0,0,1,43.2-19.6c6.5-2.2,14.4-5.6,21.3-5.5,13.4.2,21.7,14.3,16.5,26.3-.8,1.8,1.8,3.3,2.6,1.5,7.6-17.7-8.2-34.4-26.3-29.7a231.6,231.6,0,0,0-38.9,14.1c-35.3,16.3-66.3,40.9-91.1,70.8a285.38,285.38,0,0,0-20.6,28.1c-3.7,5.6-7.2,11.4-10.5,17.3-2.9,5.1-6.5,10.3-7.8,16.1a21.9,21.9,0,0,0,7.8,21.8c6.3,4.9,13.3,4.7,20.7,3.7,27-3.6,52.8-13.9,75.5-29,41.1-27.4,70.4-69,91.2-113.1C495.85,365.73,493.25,364.23,492.45,366Z"/><path class="cls-1" d="M83.65,200.63c117.9,34.8,154.2,104.3,165.4,145.9,4.2,15.8-10.8,30-26.3,24.7-101.5-34.5-145.4-101.1-163.6-142.9C52.15,212.53,67,195.73,83.65,200.63Z"/><path class="cls-1" d="M83.25,202.13c65.6,19.5,129.7,58.1,157.1,123.7,4.4,10.5,11.8,25.8,4.8,36.4a19.32,19.32,0,0,1-13.3,8.5c-6.1.8-12.1-2-17.7-4.1a307.45,307.45,0,0,1-33.3-14.5c-33.4-17-63.4-40.4-87-69.5A248.6,248.6,0,0,1,67.75,243c-3.3-6.3-8.2-13.9-8.8-21.1-1.2-13.6,11.8-23.1,24.3-19.8a1.5,1.5,0,0,0,.8-2.9,22.25,22.25,0,0,0-23.6,7.7c-5.6,7.2-5.5,15.9-1.9,23.9a238,238,0,0,0,20.6,36.9c21.4,31.6,50.1,57.9,82.9,77.4a285.75,285.75,0,0,0,31.6,16.3c5.7,2.5,11.4,4.9,17.3,7.1,5.5,2.1,11.3,4.9,17.2,5.2a22.24,22.24,0,0,0,20.9-12.3c3.6-7.2,1.9-14.4-.3-21.6-8-25.8-22.2-49.3-40.5-69.1-33.1-35.7-78-57.8-124.1-71.6A1.57,1.57,0,0,0,83.25,202.13Z"/><path class="cls-1" d="M72.25,389.73c109.7,24.2,152.2,83.5,168.5,123.5a23.33,23.33,0,0,1-27.6,31.4c-95-25-143.2-81.2-166.1-120.4C36.75,406.63,52.45,385.33,72.25,389.73Z"/><path class="cls-1" d="M71.85,391.13c64.5,14.4,128.2,47,160.4,107.3,6.6,12.5,14.4,28,1.7,39.6-9.1,8.4-19.8,5.3-30.5,2.2a312.41,312.41,0,0,1-32.4-11.6c-33.6-14.2-64.4-34.7-89.5-61.2a247.33,247.33,0,0,1-28.3-36.1c-4.9-7.6-9.9-15.5-7.1-24.9a22.31,22.31,0,0,1,25.7-15.3c1.9.4,2.7-2.5.8-2.9C56,385,39.95,398.63,42.55,416c1.1,7.3,6,13.8,10,19.9,3.9,5.9,8,11.6,12.4,17.1,23.1,29.2,52.8,52.8,85.9,69.7a316.39,316.39,0,0,0,31,13.6c5.7,2.1,11.5,4.1,17.4,5.9,5.6,1.7,11.4,3.9,17.3,4.5,19,2.1,32.2-17.5,25.3-34.6-9.8-24.4-25.9-46.3-45.3-64-34.5-31.6-78.9-49.8-124-59.9C70.75,387.83,69.95,390.73,71.85,391.13Z"/><path class="cls-1" d="M521.95,586.33c-91.4,84.4-170.4,79.2-211.7,67.1a20.05,20.05,0,0,1-7.3-34.5c82.4-70.1,162.9-73.2,208-67.2C527.85,553.93,534.45,574.83,521.95,586.33Z"/><path class="cls-1" d="M520.95,585.33c-51.6,47.4-119.8,83.3-191.8,71-12-2.1-28.5-4-31.4-18.3-2.2-11,5.4-17.4,13.1-23.7a313.65,313.65,0,0,1,30.5-21.9c33.5-21.1,71.3-35.3,110.7-39.7a242.14,242.14,0,0,1,47.4-.8c8,.7,17,.7,22.7,7.2,6.9,7.8,6,19.1-1.2,26.2a1.48,1.48,0,1,0,2.1,2.1c10.9-10.7,8.2-29.9-6.5-35.8-6.3-2.5-14.1-2.5-20.8-2.9-7.6-.5-15.2-.6-22.8-.4-39.7,1.1-78.8,12-113.9,30.5a305,305,0,0,0-32.7,20.1c-5.2,3.7-10.4,7.5-15.4,11.5-4.3,3.4-9.3,6.8-12.6,11.3a21.72,21.72,0,0,0-2.1,21.2c3,6.8,8.7,10.6,15.6,12.5,26.6,7.4,54.7,8,81.8,2.9,49.3-9.4,92.9-37.4,129.4-70.9C524.45,586.13,522.35,584,520.95,585.33Z"/><path class="cls-1" d="M499.45,773.93c-103.1,65.5-179,47.7-217.8,29a20.7,20.7,0,0,1-1.4-36.5c91.9-53.4,170.6-43.2,214.1-29.7C511.25,741.93,514.35,764.43,499.45,773.93Z"/><path class="cls-1" d="M498.75,772.63c-58.8,37.2-131.4,60.1-199.6,35.9-11.7-4.2-27.4-9.1-27.6-24-.2-11.7,9-16.7,18.1-21.6a312,312,0,0,1,33.1-15.6c36.5-14.6,75.9-21.8,115.2-19.3a239.08,239.08,0,0,1,47.5,7.8c7.8,2.1,15.8,4.1,19.8,11.8,4.7,8.8,1.7,19.4-6.5,25-1.6,1.1-.1,3.7,1.5,2.6,12.5-8.4,13.9-27.1,1.5-36.4-5.4-4-12.7-5.3-19.1-6.9-7.3-1.8-14.8-3.3-22.2-4.5-39.3-6.1-79.6-2.4-117.5,9.5a299.69,299.69,0,0,0-34.5,13.3c-5.7,2.6-11.3,5.4-16.8,8.3s-11.7,5.6-16.2,9.8c-11.7,11.1-7.2,29.7,6.6,36.4,24.3,11.8,51.7,17.2,78.7,17,50.1-.4,97.8-20,139.7-46.4C501.85,774.13,500.35,771.53,498.75,772.63Z"/><path class="cls-1" d="M45.35,568.43c120.8,21.9,164.4,86.9,180,127a20.52,20.52,0,0,1-23.5,27.5c-104.2-23.3-155.1-84.5-177.8-124C15.35,583.83,28.15,565.33,45.35,568.43Z"/><path class="cls-1" d="M44.95,569.93c67.1,12.3,134.8,43.6,169.3,105.4,5.8,10.4,15.4,25.5,8.5,37.1a19.66,19.66,0,0,1-11.9,9c-6.2,1.5-12.7-.8-18.7-2.3a311.23,311.23,0,0,1-32.8-10.2c-35.7-13.3-68.7-33.7-95.6-60.7a244.62,244.62,0,0,1-30.3-37c-4-6.1-9.9-13.4-10.6-20.8-1.2-12.5,10-22.3,22.1-20.5,1.9.3,2.7-2.6.8-2.9-18.9-2.8-32,16.8-22.7,33.3a230,230,0,0,0,23.5,33.6c24.5,29.4,55.8,52.8,90.5,68.9a300.44,300.44,0,0,0,33.4,13.1c5.8,1.9,11.6,3.6,17.5,5.2s12,3.7,18,3.8a22.11,22.11,0,0,0,20.6-13.6c3.2-7.6,1.1-14.6-2-21.7a180.63,180.63,0,0,0-47.9-64.9c-36.7-31.9-83.6-49.1-130.9-57.8C43.85,566.63,43,569.53,44.95,569.93Z"/><path class="cls-1" d="M21,759.33c123.4-4.3,179.9,50.5,203.5,86.5,8.9,13.5-.8,31.6-17,31.5C99.95,876.73,37,827,6.65,793.13-4.75,780.33,3.95,759.93,21,759.33Z"/><path class="cls-1" d="M21,760.83c69.1-2.2,142.7,14.4,189.5,68.8,7.7,9,19.6,21.3,14.7,34-4.5,11.8-15.7,12.3-26.6,12a320.89,320.89,0,0,1-36.6-3.2c-38.3-5.7-75.4-19-107.7-40.3a242.7,242.7,0,0,1-37-30c-5.3-5.3-12.5-11.2-14-18.9-2.2-11.4,6.4-21.7,17.7-22.4,1.9-.1,1.9-3.1,0-3-17.2,1.1-27.5,20.9-16.5,35,8.5,10.9,19.8,20.4,30.5,29,30.6,24.3,66.7,40.9,104.7,49.5a319,319,0,0,0,36.5,5.9c6.3.6,12.5,1.1,18.8,1.3,5.8.2,12.2,1.1,17.9-.3a22.18,22.18,0,0,0,16.1-17c1.5-7.6-1.5-13.8-5.7-19.9-15.5-22.3-36.3-40.5-59.9-53.8-43.1-24.2-93.5-31.2-142.3-29.7C19.15,757.93,19.15,760.93,21,760.83Z"/></g></g></svg>